Coordinates
version=1
nRows=9
nColumns=24
inDegrees=yes

Units are S.I. units (second, meters, Newtons, ...)
Angles are in degrees.

endheader
time	pelvis_tilt	pelvis_list	pelvis_rotation	pelvis_tx	pelvis_ty	pelvis_tz	hip_flexion_r	hip_adduction_r	hip_rotation_r	knee_angle_r	ankle_angle_r	subtalar_angle_r	mtp_angle_r	hip_flexion_l	hip_adduction_l	hip_rotation_l	knee_angle_l	ankle_angle_l	subtalar_angle_l	mtp_angle_l	lumbar_extension	lumbar_bending	lumbar_rotation
      0.92933333	      2.08901663	      4.29008725	     -5.40592806	     -0.18898127	      1.00772122	      0.29648792	    -11.98179344	     -3.00510533	      3.21054310	    -11.98127596	     16.49618640	     -7.94283537	     -1.97362819	     18.67728611	      3.38028693	    -10.62475724	      1.17499590	     -1.99760965	     -8.99246695	      0.00261043	     -9.20933597	     -4.61910789	     10.78438619
      0.93350000	      2.12366678	      4.32311953	     -5.43412563	     -0.18308202	      1.00719954	      0.29621441	    -12.12107359	     -3.07518013	      3.17924113	    -12.51480546	     16.55504688	     -7.98650822	     -2.00586437	     18.62059412	      3.44535920	    -10.50631024	      1.19903347	     -1.82017191	     -9.01822537	      0.02257883	     -9.20840076	     -4.70839898	     10.82818531
      0.93766667	      2.18228093	      4.37909110	     -5.48839726	     -0.17714480	      1.00673448	      0.29591375	    -12.23240145	     -3.19388457	      3.06562014	    -13.15109524	     16.69323955	     -7.76103844	     -2.08320810	     18.51987313	      3.53793545	    -10.34511140	      1.18665124	     -1.70180648	     -9.11732699	      0.08258300	     -9.22905964	     -4.79448515	     10.97585097
      0.94183333	      2.24377196	      4.44097694	     -5.53298728	     -0.17119472	      1.00631399	      0.29562316	    -12.34086613	     -3.31051230	      3.00568814	    -13.80170098	     16.77406055	     -7.66163337	     -2.13267335	     18.43346299	      3.63590674	    -10.15104025	      1.06297310	     -1.57408038	     -9.21553431	      0.14210126	     -9.25310774	     -4.90793806	     11.05501956
      0.94600000	      2.29620399	      4.51221032	     -5.58009449	     -0.16521443	      1.00591402	      0.29530594	    -12.40335079	     -3.44411587	      2.91239660	    -14.52223418	     16.82811485	     -7.52417645	     -2.16535040	     18.36188612	      3.74361407	     -9.94335848	      0.86165849	     -1.50114859	     -9.35354431	      0.21909432	     -9.25522005	     -5.02047082	     11.14513054
      0.95016667	      2.36505277	      4.59941749	     -5.62416467	     -0.15920735	      1.00557643	      0.29500651	    -12.47423727	     -3.58953686	      2.86520031	    -15.26151061	     16.84618453	     -7.46596560	     -2.16852200	     18.28552134	      3.86874444	     -9.72168851	      0.56731139	     -1.42147718	     -9.47126123	      0.27485917	     -9.28389425	     -5.17935280	     11.21010350
      0.95433333	      2.41451544	      4.68568165	     -5.66569841	     -0.15318914	      1.00522380	      0.29466260	    -12.47736892	     -3.74167719	      2.76255718	    -16.09512004	     16.86063771	     -7.30944071	     -2.14914678	     18.23216085	      3.99645724	     -9.45522209	      0.21502739	     -1.39446006	     -9.65293990	      0.34568640	     -9.28075173	     -5.31867666	     11.29418499
      0.95850000	      2.48463826	      4.78567490	     -5.72313134	     -0.14713321	      1.00493760	      0.29429941	    -12.45958438	     -3.92384405	      2.62284856	    -17.00874048	     16.85167555	     -7.07172837	     -2.09128119	     18.13699637	      4.14590965	     -9.17306023	     -0.14185649	     -1.45921284	     -9.88981979	      0.45040545	     -9.28423350	     -5.45453146	     11.37686071
      0.96266667	      2.55903478	      4.89265885	     -5.76606897	     -0.14106267	      1.00467956	      0.29392102	    -12.43048933	     -4.10857955	      2.50008262	    -17.95430273	     16.79704925	     -6.89271883	     -1.99401867	     18.05527419	      4.30710796	     -8.87237409	     -0.58163458	     -1.53588529	    -10.14193604	      0.57262539	     -9.30137703	     -5.61542215	     11.43989986
